<svg
  xmlns="http://www.w3.org/2000/svg"
  width="108"
  height="108"
  viewBox="0 0 108 108"
  fill="none"
>
  <rect width="108" height="108" rx="22" fill="#F6F6F4" />
  <path
    d="M26.5 19.3H20C18.4 19.3 17.1 20.6 17.1 22.1V28.8M81.5 19.3H88C89.6 19.3 90.9 20.6 90.9 22.1V28.8M26.5 88.7H20C18.4 88.7 17.1 87.4 17.1 85.9V79.2M81.5 88.7H88C89.6 88.7 90.9 87.4 90.9 85.9V79.2"
    stroke="#0D0E11"
    stroke-width="2.6"
    stroke-linecap="round"
    stroke-linejoin="round"
  />
  <path
    d="M37 47.5C29 34 36.5 24 49.5 23.7C58 22.7 66.5 26 72.5 31.5"
    stroke="#2F5BFF"
    stroke-width="7.1"
    stroke-linecap="round"
  />
  <path
    d="M34 77.4C42.5 85.4 54 88.5 63.2 82C69.2 77.5 71.6 68.2 68.8 60.5"
    stroke="#0D0E11"
    stroke-width="7.1"
    stroke-linecap="round"
  />
</svg>
